<mxfile host="app.diagrams.net" agent="Mozilla/5.0 (Macintosh; Intel Mac OS X 10_15_7) AppleWebKit/605.1.15 (KHTML, like Gecko) Version/18.3.1 Safari/605.1.15" version="26.2.13">
  <diagram name="第 1 页" id="U_JN6pfyNVJltQ47nYu5">
    <mxGraphModel dx="2181" dy="931" grid="1" gridSize="10" guides="1" tooltips="1" connect="1" arrows="1" fold="1" page="1" pageScale="1" pageWidth="827" pageHeight="1169" background="#ffffff" math="0" shadow="0">
      <root>
        <mxCell id="0" />
        <mxCell id="1" parent="0" />
        <mxCell id="IK5c9DcX9OK4mzyLV8YH-1" value="&lt;font size=&quot;4&quot; face=&quot;Times New Roman&quot;&gt;module&lt;/font&gt;" style="rounded=1;whiteSpace=wrap;html=1;" vertex="1" parent="1">
          <mxGeometry x="130" y="330" width="120" height="60" as="geometry" />
        </mxCell>
        <mxCell id="IK5c9DcX9OK4mzyLV8YH-5" style="edgeStyle=orthogonalEdgeStyle;rounded=0;orthogonalLoop=1;jettySize=auto;html=1;exitX=0.5;exitY=0;exitDx=0;exitDy=0;entryX=0.5;entryY=1;entryDx=0;entryDy=0;fontFamily=Helvetica;fontSize=12;fontColor=default;" edge="1" parent="1" source="IK5c9DcX9OK4mzyLV8YH-2" target="IK5c9DcX9OK4mzyLV8YH-4">
          <mxGeometry relative="1" as="geometry" />
        </mxCell>
        <mxCell id="IK5c9DcX9OK4mzyLV8YH-6" style="edgeStyle=orthogonalEdgeStyle;rounded=0;orthogonalLoop=1;jettySize=auto;html=1;exitX=0.5;exitY=0;exitDx=0;exitDy=0;entryX=0.5;entryY=1;entryDx=0;entryDy=0;fontFamily=Helvetica;fontSize=12;fontColor=default;" edge="1" parent="1" source="IK5c9DcX9OK4mzyLV8YH-2" target="IK5c9DcX9OK4mzyLV8YH-1">
          <mxGeometry relative="1" as="geometry" />
        </mxCell>
        <mxCell id="IK5c9DcX9OK4mzyLV8YH-2" value="&lt;font style=&quot;font-size: 18px;&quot; face=&quot;Times New Roman&quot;&gt;x&lt;/font&gt;" style="ellipse;whiteSpace=wrap;html=1;rounded=1;strokeColor=default;align=center;verticalAlign=middle;fontFamily=Helvetica;fontSize=12;fontColor=default;fillColor=default;" vertex="1" parent="1">
          <mxGeometry x="40" y="450" width="120" height="80" as="geometry" />
        </mxCell>
        <mxCell id="IK5c9DcX9OK4mzyLV8YH-3" value="&lt;font size=&quot;4&quot; face=&quot;Times New Roman&quot;&gt;sigmoid&lt;/font&gt;" style="rounded=1;whiteSpace=wrap;html=1;" vertex="1" parent="1">
          <mxGeometry x="-50" y="220" width="120" height="60" as="geometry" />
        </mxCell>
        <mxCell id="IK5c9DcX9OK4mzyLV8YH-7" style="edgeStyle=orthogonalEdgeStyle;rounded=0;orthogonalLoop=1;jettySize=auto;html=1;exitX=0.5;exitY=0;exitDx=0;exitDy=0;fontFamily=Helvetica;fontSize=12;fontColor=default;" edge="1" parent="1" source="IK5c9DcX9OK4mzyLV8YH-4" target="IK5c9DcX9OK4mzyLV8YH-3">
          <mxGeometry relative="1" as="geometry" />
        </mxCell>
        <mxCell id="IK5c9DcX9OK4mzyLV8YH-4" value="&lt;font size=&quot;4&quot; face=&quot;Times New Roman&quot;&gt;module&lt;/font&gt;" style="rounded=1;whiteSpace=wrap;html=1;" vertex="1" parent="1">
          <mxGeometry x="-50" y="330" width="120" height="60" as="geometry" />
        </mxCell>
        <mxCell id="IK5c9DcX9OK4mzyLV8YH-8" value="&lt;font size=&quot;4&quot; face=&quot;Times New Roman&quot;&gt;out&lt;/font&gt;" style="ellipse;whiteSpace=wrap;html=1;rounded=1;strokeColor=default;align=center;verticalAlign=middle;fontFamily=Helvetica;fontSize=12;fontColor=default;fillColor=default;" vertex="1" parent="1">
          <mxGeometry x="50" width="120" height="80" as="geometry" />
        </mxCell>
        <mxCell id="IK5c9DcX9OK4mzyLV8YH-12" style="edgeStyle=orthogonalEdgeStyle;rounded=0;orthogonalLoop=1;jettySize=auto;html=1;exitX=0.5;exitY=0;exitDx=0;exitDy=0;exitPerimeter=0;fontFamily=Helvetica;fontSize=12;fontColor=default;" edge="1" parent="1" source="IK5c9DcX9OK4mzyLV8YH-9" target="IK5c9DcX9OK4mzyLV8YH-8">
          <mxGeometry relative="1" as="geometry" />
        </mxCell>
        <mxCell id="IK5c9DcX9OK4mzyLV8YH-9" value="" style="verticalLabelPosition=bottom;verticalAlign=top;html=1;shape=mxgraph.flowchart.or;rounded=1;strokeColor=default;align=center;fontFamily=Helvetica;fontSize=12;fontColor=default;fillColor=default;" vertex="1" parent="1">
          <mxGeometry x="90" y="130" width="40" height="40" as="geometry" />
        </mxCell>
        <mxCell id="IK5c9DcX9OK4mzyLV8YH-10" style="edgeStyle=orthogonalEdgeStyle;rounded=0;orthogonalLoop=1;jettySize=auto;html=1;exitX=0.5;exitY=0;exitDx=0;exitDy=0;entryX=1;entryY=0.5;entryDx=0;entryDy=0;entryPerimeter=0;fontFamily=Helvetica;fontSize=12;fontColor=default;" edge="1" parent="1" source="IK5c9DcX9OK4mzyLV8YH-1" target="IK5c9DcX9OK4mzyLV8YH-9">
          <mxGeometry relative="1" as="geometry" />
        </mxCell>
        <mxCell id="IK5c9DcX9OK4mzyLV8YH-11" style="edgeStyle=orthogonalEdgeStyle;rounded=0;orthogonalLoop=1;jettySize=auto;html=1;exitX=0.5;exitY=0;exitDx=0;exitDy=0;entryX=0;entryY=0.5;entryDx=0;entryDy=0;entryPerimeter=0;fontFamily=Helvetica;fontSize=12;fontColor=default;" edge="1" parent="1" source="IK5c9DcX9OK4mzyLV8YH-3" target="IK5c9DcX9OK4mzyLV8YH-9">
          <mxGeometry relative="1" as="geometry" />
        </mxCell>
      </root>
    </mxGraphModel>
  </diagram>
</mxfile>
